<svg width="42" height="42" viewBox="0 0 42 42" fill="none" xmlns="http://www.w3.org/2000/svg">
<rect x="0.0842285" y="0.475891" width="41.2048" height="41.2048" rx="20.6024" fill="#1252AE" fill-opacity="0.15"/>
<path d="M28.9277 21.0783C28.9277 23.2639 28.0594 25.3601 26.5139 26.9055C24.9685 28.451 22.8723 29.3193 20.6867 29.3193C18.5011 29.3193 16.4049 28.451 14.8595 26.9055C13.314 25.3601 12.4457 23.2639 12.4457 21.0783C12.4457 18.8927 13.314 16.7965 14.8595 15.2511C16.4049 13.7056 18.5011 12.8373 20.6867 12.8373C21.4696 12.8373 22.2319 12.9507 22.953 13.1567L24.5703 11.5394C23.3753 11.0449 22.0671 10.7771 20.6867 10.7771C19.3339 10.7771 17.9944 11.0435 16.7446 11.5612C15.4948 12.0789 14.3592 12.8377 13.4027 13.7943C11.4708 15.7261 10.3855 18.3463 10.3855 21.0783C10.3855 23.8104 11.4708 26.4305 13.4027 28.3624C14.3592 29.3189 15.4948 30.0777 16.7446 30.5954C17.9944 31.1131 19.3339 31.3795 20.6867 31.3795C23.4188 31.3795 26.0389 30.2942 27.9708 28.3624C29.9026 26.4305 30.9879 23.8104 30.9879 21.0783M16.4735 19.1005L15.021 20.5632L19.6566 25.1988L29.9578 14.8976L28.5053 13.4348L19.6566 22.2835L16.4735 19.1005Z" fill="#DD9F03"/>
</svg>
