<svg width="24" height="26" viewBox="0 0 24 26" fill="none" xmlns="http://www.w3.org/2000/svg">
<path d="M9.62331 3.14131C11.2824 3.14131 12.8736 3.85843 14.0467 5.13491C15.2199 6.4114 15.8789 8.14268 15.8789 9.9479C15.8789 11.6338 15.3111 13.1836 14.3776 14.3774L14.6374 14.6601H15.3977L20.2098 19.896L18.7662 21.4667L13.9541 16.2309V15.4036L13.6943 15.1209C12.5971 16.1367 11.1728 16.7545 9.62331 16.7545C7.96421 16.7545 6.37307 16.0374 5.19991 14.7609C4.02675 13.4844 3.36768 11.7531 3.36768 9.9479C3.36768 8.14268 4.02675 6.4114 5.19991 5.13491C6.37307 3.85843 7.96421 3.14131 9.62331 3.14131ZM9.62331 5.23565C7.2173 5.23565 5.29249 7.32998 5.29249 9.9479C5.29249 12.5658 7.2173 14.6601 9.62331 14.6601C12.0293 14.6601 13.9541 12.5658 13.9541 9.9479C13.9541 7.32998 12.0293 5.23565 9.62331 5.23565Z" fill="white"/>
</svg>
