<svg width="13" height="18" viewBox="0 0 13 18" fill="none" xmlns="http://www.w3.org/2000/svg">
<path d="M6.06252 2.05016C7.7093 2.05016 9.05667 3.51619 9.05667 5.30801C9.05667 7.01839 7.48474 9.78756 6.06252 11.7423C4.6403 9.70611 3.06837 7.01839 3.06837 5.30801C3.06837 3.51619 4.41573 2.05016 6.06252 2.05016ZM6.06252 0.421234C3.59234 0.421234 1.57129 2.62028 1.57129 5.30801C1.57129 8.9731 6.06252 14.2671 6.06252 14.2671C6.06252 14.2671 10.5537 8.89165 10.5537 5.30801C10.5537 2.62028 8.53269 0.421234 6.06252 0.421234ZM6.06252 3.67909C5.23913 3.67909 4.56544 4.4121 4.56544 5.30801C4.56544 6.20392 5.23913 6.93694 6.06252 6.93694C6.88591 6.93694 7.55959 6.20392 7.55959 5.30801C7.55959 4.4121 6.88591 3.67909 6.06252 3.67909ZM12.0508 14.2671C12.0508 16.0589 9.35608 17.525 6.06252 17.525C2.76895 17.525 0.0742188 16.0589 0.0742188 14.2671C0.0742188 13.2083 0.972463 12.3124 2.39468 11.6608L2.84381 12.3938C2.09527 12.8011 1.57129 13.2898 1.57129 13.8599C1.57129 15.0001 3.59234 15.896 6.06252 15.896C8.53269 15.896 10.5537 15.0001 10.5537 13.8599C10.5537 13.2898 10.0298 12.8011 9.20637 12.3938L9.65549 11.6608C11.1526 12.3124 12.0508 13.2083 12.0508 14.2671Z" fill="#1252AE"/>
</svg>
