<svg width="19" height="21" viewBox="0 0 19 21" fill="none" xmlns="http://www.w3.org/2000/svg">
<path d="M5.74292 13.0093H7.23999C7.23999 13.8889 8.26549 14.6382 9.48561 14.6382C10.7057 14.6382 11.7312 13.8889 11.7312 13.0093C11.7312 12.1133 10.9527 11.7876 9.30596 11.3559C7.71906 10.9242 5.74292 10.3867 5.74292 8.12248C5.74292 6.66459 6.84327 5.42661 8.3628 5.01123V3.2357H10.6084V5.01123C12.1279 5.42661 13.2283 6.66459 13.2283 8.12248H11.7312C11.7312 7.24286 10.7057 6.49355 9.48561 6.49355C8.26549 6.49355 7.23999 7.24286 7.23999 8.12248C7.23999 9.01839 8.01847 9.34417 9.66525 9.77584C11.2522 10.2075 13.2283 10.7451 13.2283 13.0093C13.2283 14.4671 12.1279 15.7051 10.6084 16.1205V17.896H8.3628V16.1205C6.84327 15.7051 5.74292 14.4671 5.74292 13.0093Z" fill="#1252AE"/>
</svg>
