<svg width="19" height="19" viewBox="0 0 19 19" fill="none" xmlns="http://www.w3.org/2000/svg">
<g clip-path="url(#clip0_112_487)">
<path d="M19 9.5C19 4.25329 14.7467 0 9.5 0C4.25329 0 0 4.25329 0 9.5C0 14.2416 3.47399 18.1719 8.01562 18.8846V12.2461H5.60352V9.5H8.01562V7.40703C8.01562 5.02609 9.43395 3.71094 11.6039 3.71094C12.643 3.71094 13.7305 3.89648 13.7305 3.89648V6.23437H12.5326C11.3525 6.23437 10.9844 6.96673 10.9844 7.71875V9.5H13.6191L13.1979 12.2461H10.9844V18.8846C15.526 18.1719 19 14.2416 19 9.5Z" fill="white"/>
</g>
<defs>
<clipPath id="clip0_112_487">
<rect width="19" height="19" fill="white"/>
</clipPath>
</defs>
</svg>
