<svg width="32" height="37" viewBox="0 0 32 37" fill="none" xmlns="http://www.w3.org/2000/svg">
<path d="M26.6667 16.5691H29.3334C29.3334 8.86587 24.1694 3.05615 17.3201 3.05615V6.05937C22.7361 6.05937 26.6667 10.4786 26.6667 16.5691Z" fill="#DD9F03"/>
<path d="M17.3332 12.0657C20.1372 12.0657 21.3332 13.4127 21.3332 16.5705H23.9999C23.9999 11.7279 21.6332 9.0625 17.3332 9.0625V12.0657ZM21.8959 20.239C21.6397 19.9767 21.303 19.8369 20.957 19.8489C20.6109 19.8609 20.2826 20.024 20.0412 20.3035L16.8506 23.999C16.0826 23.8338 14.5386 23.2917 12.9492 21.5063C11.3599 19.7149 10.8786 17.9715 10.7359 17.1126L14.0146 13.5178C14.2631 13.2462 14.4081 12.8763 14.4188 12.4865C14.4295 12.0966 14.3051 11.7174 14.0719 11.429L9.14522 5.328C8.91194 5.03873 8.58773 4.86326 8.24142 4.83887C7.89512 4.81448 7.55402 4.94308 7.29055 5.19736L4.39722 7.99186C4.1667 8.25241 4.02911 8.59918 4.01055 8.9664C3.99055 9.3418 3.60922 18.2343 9.73189 25.1327C15.0732 31.1467 21.7639 31.5866 23.6066 31.5866C23.8759 31.5866 24.0412 31.5776 24.0852 31.5746C24.4112 31.5541 24.719 31.3984 24.9492 31.1376L27.4292 27.8777C27.6552 27.5811 27.7696 27.1971 27.7482 26.8071C27.7268 26.4171 27.5712 26.0518 27.3146 25.7889L21.8959 20.239Z" fill="#DD9F03"/>
</svg>
