<svg width="32" height="37" viewBox="0 0 32 37" fill="none" xmlns="http://www.w3.org/2000/svg">
<path d="M16 2.45996C13.0837 2.46384 10.2878 3.77027 8.22564 6.09268C6.16348 8.41509 5.00345 11.5638 5.00001 14.8482C4.99652 17.5322 5.77499 20.1434 7.21601 22.2812C7.21601 22.2812 7.51601 22.726 7.56501 22.7902L16 33.9937L24.439 22.7846C24.483 22.7249 24.784 22.2812 24.784 22.2812L24.785 22.2778C26.2253 20.141 27.0034 17.531 27 14.8482C26.9966 11.5638 25.8365 8.41509 23.7744 6.09268C21.7122 3.77027 18.9163 2.46384 16 2.45996ZM16 19.3531C15.2089 19.3531 14.4355 19.0888 13.7777 18.5939C13.1199 18.0989 12.6072 17.3953 12.3045 16.5721C12.0017 15.749 11.9225 14.8432 12.0769 13.9694C12.2312 13.0955 12.6122 12.2928 13.1716 11.6628C13.731 11.0328 14.4437 10.6038 15.2197 10.43C15.9956 10.2561 16.7998 10.3454 17.5307 10.6863C18.2616 11.0273 18.8864 11.6047 19.3259 12.3455C19.7654 13.0863 20 13.9573 20 14.8482C19.9987 16.0425 19.5768 17.1875 18.827 18.032C18.0771 18.8765 17.0605 19.3516 16 19.3531Z" fill="#DD9F03"/>
</svg>
