<svg width="25" height="22" viewBox="0 0 25 22" fill="none" xmlns="http://www.w3.org/2000/svg">
<path d="M21.5461 0.297791C23.4539 0.297791 25 1.95286 25 3.99528V17.7288C25 19.7712 23.4539 21.4263 21.5461 21.4263H3.45395C2.5379 21.4263 1.65938 21.0368 1.01164 20.3433C0.363897 19.6499 0 18.7095 0 17.7288V3.99528C0 1.95286 1.54605 0.297791 3.45395 0.297791H21.5461ZM23.3553 6.88355L12.8961 13.0418C12.7884 13.1052 12.6689 13.1419 12.5463 13.1493C12.4237 13.1568 12.3011 13.1347 12.1875 13.0848L12.1039 13.0425L1.64474 6.88285V17.7288C1.64474 18.2425 1.83535 18.7351 2.17464 19.0983C2.51393 19.4615 2.97411 19.6656 3.45395 19.6656H21.5461C22.0259 19.6656 22.4861 19.4615 22.8254 19.0983C23.1646 18.7351 23.3553 18.2425 23.3553 17.7288V6.88355ZM21.5461 2.0585H3.45395C2.97411 2.0585 2.51393 2.26255 2.17464 2.62577C1.83535 2.98899 1.64474 3.48161 1.64474 3.99528V4.87493L12.5 11.2656L23.3553 4.87423V3.99528C23.3553 3.48161 23.1646 2.98899 22.8254 2.62577C22.4861 2.26255 22.0259 2.0585 21.5461 2.0585Z" fill="white"/>
</svg>
