<svg width="50" height="50" viewBox="0 0 50 50" fill="none" xmlns="http://www.w3.org/2000/svg">
<path d="M25 0C21.717 0 18.4661 0.646644 15.4329 1.90301C12.3998 3.15938 9.6438 5.00087 7.32233 7.32233C2.63392 12.0107 0 18.3696 0 25C0 31.6304 2.63392 37.9893 7.32233 42.6777C9.6438 44.9991 12.3998 46.8406 15.4329 48.097C18.4661 49.3534 21.717 50 25 50C31.6304 50 37.9893 47.3661 42.6777 42.6777C47.3661 37.9893 50 31.6304 50 25C50 21.717 49.3534 18.4661 48.097 15.4329C46.8406 12.3998 44.9991 9.6438 42.6777 7.32233C40.3562 5.00087 37.6002 3.15938 34.5671 1.90301C31.5339 0.646644 28.283 0 25 0ZM12.5 18.75C12.5 16.75 14.25 15 16.25 15C18.25 15 20 16.75 20 18.75C20 20.75 18.25 22.5 16.25 22.5C14.25 22.5 12.5 20.75 12.5 18.75ZM25 38.075C20.625 38.075 16.775 36.25 14.525 33.55L18.075 30C19.2 31.8 21.875 33.075 25 33.075C28.125 33.075 30.8 31.8 31.925 30L35.475 33.55C33.225 36.25 29.375 38.075 25 38.075ZM33.75 22.5C31.75 22.5 30 20.75 30 18.75C30 16.75 31.75 15 33.75 15C35.75 15 37.5 16.75 37.5 18.75C37.5 20.75 35.75 22.5 33.75 22.5Z" fill="#DD9F03"/>
</svg>
